<svg width="362" height="62" viewBox="0 0 362 62" fill="none" xmlns="http://www.w3.org/2000/svg">
<path d="M12.3125 2.5L24 35.5L35.625 2.5H47.9375V48H38.5312V35.5625L39.4688 14.0938L27.1875 48H20.75L8.5 14.125L9.4375 35.5625V48H0.0625V2.5H12.3125ZM68.1562 35.2188L74.4062 14.1875H84.0938L70.5 53.25L69.75 55.0312C67.7292 59.4479 64.3958 61.6562 59.75 61.6562C58.4375 61.6562 57.1042 61.4583 55.75 61.0625V54.2188L57.125 54.25C58.8333 54.25 60.1042 53.9896 60.9375 53.4688C61.7917 52.9479 62.4583 52.0833 62.9375 50.875L64 48.0938L52.1562 14.1875H61.875L68.1562 35.2188ZM121.031 31.3438H113.562V48H104.188V2.5H121.094C126.469 2.5 130.615 3.69792 133.531 6.09375C136.448 8.48958 137.906 11.875 137.906 16.25C137.906 19.3542 137.229 21.9479 135.875 24.0312C134.542 26.0938 132.51 27.7396 129.781 28.9688L139.625 47.5625V48H129.562L121.031 31.3438ZM113.562 23.75H121.125C123.479 23.75 125.302 23.1562 126.594 21.9688C127.885 20.7604 128.531 19.1042 128.531 17C128.531 14.8542 127.917 13.1667 126.688 11.9375C125.479 10.7083 123.615 10.0938 121.094 10.0938H113.562V23.75ZM160.031 48.625C155.073 48.625 151.031 47.1042 147.906 44.0625C144.802 41.0208 143.25 36.9688 143.25 31.9062V31.0312C143.25 27.6354 143.906 24.6042 145.219 21.9375C146.531 19.25 148.385 17.1875 150.781 15.75C153.198 14.2917 155.948 13.5625 159.031 13.5625C163.656 13.5625 167.292 15.0208 169.938 17.9375C172.604 20.8542 173.938 24.9896 173.938 30.3438V34.0312H152.406C152.698 36.2396 153.573 38.0104 155.031 39.3438C156.51 40.6771 158.375 41.3438 160.625 41.3438C164.104 41.3438 166.823 40.0833 168.781 37.5625L173.219 42.5312C171.865 44.4479 170.031 45.9479 167.719 47.0312C165.406 48.0938 162.844 48.625 160.031 48.625ZM159 20.875C157.208 20.875 155.75 21.4792 154.625 22.6875C153.521 23.8958 152.812 25.625 152.5 27.875H165.062V27.1562C165.021 25.1562 164.479 23.6146 163.438 22.5312C162.396 21.4271 160.917 20.875 159 20.875ZM193.156 41.3438C194.823 41.3438 196.177 40.8854 197.219 39.9688C198.26 39.0521 198.802 37.8333 198.844 36.3125H207.312C207.292 38.6042 206.667 40.7083 205.438 42.625C204.208 44.5208 202.521 46 200.375 47.0625C198.25 48.1042 195.896 48.625 193.312 48.625C188.479 48.625 184.667 47.0938 181.875 44.0312C179.083 40.9479 177.688 36.6979 177.688 31.2812V30.6875C177.688 25.4792 179.073 21.3229 181.844 18.2188C184.615 15.1146 188.417 13.5625 193.25 13.5625C197.479 13.5625 200.865 14.7708 203.406 17.1875C205.969 19.5833 207.271 22.7812 207.312 26.7812H198.844C198.802 25.0312 198.26 23.6146 197.219 22.5312C196.177 21.4271 194.802 20.875 193.094 20.875C190.99 20.875 189.396 21.6458 188.312 23.1875C187.25 24.7083 186.719 27.1875 186.719 30.625V31.5625C186.719 35.0417 187.25 37.5417 188.312 39.0625C189.375 40.5833 190.99 41.3438 193.156 41.3438ZM228.031 48.625C223.073 48.625 219.031 47.1042 215.906 44.0625C212.802 41.0208 211.25 36.9688 211.25 31.9062V31.0312C211.25 27.6354 211.906 24.6042 213.219 21.9375C214.531 19.25 216.385 17.1875 218.781 15.75C221.198 14.2917 223.948 13.5625 227.031 13.5625C231.656 13.5625 235.292 15.0208 237.938 17.9375C240.604 20.8542 241.938 24.9896 241.938 30.3438V34.0312H220.406C220.698 36.2396 221.573 38.0104 223.031 39.3438C224.51 40.6771 226.375 41.3438 228.625 41.3438C232.104 41.3438 234.823 40.0833 236.781 37.5625L241.219 42.5312C239.865 44.4479 238.031 45.9479 235.719 47.0312C233.406 48.0938 230.844 48.625 228.031 48.625ZM227 20.875C225.208 20.875 223.75 21.4792 222.625 22.6875C221.521 23.8958 220.812 25.625 220.5 27.875H233.062V27.1562C233.021 25.1562 232.479 23.6146 231.438 22.5312C230.396 21.4271 228.917 20.875 227 20.875ZM277.531 31.4062C277.531 36.6146 276.344 40.7917 273.969 43.9375C271.615 47.0625 268.427 48.625 264.406 48.625C260.99 48.625 258.229 47.4375 256.125 45.0625V61H247.094V14.1875H255.469L255.781 17.5C257.969 14.875 260.823 13.5625 264.344 13.5625C268.51 13.5625 271.75 15.1042 274.062 18.1875C276.375 21.2708 277.531 25.5208 277.531 30.9375V31.4062ZM268.5 30.75C268.5 27.6042 267.938 25.1771 266.812 23.4688C265.708 21.7604 264.094 20.9062 261.969 20.9062C259.135 20.9062 257.188 21.9896 256.125 24.1562V38C257.229 40.2292 259.198 41.3438 262.031 41.3438C266.344 41.3438 268.5 37.8125 268.5 30.75ZM292.688 48H283.625V14.1875H292.688V48ZM283.094 5.4375C283.094 4.08333 283.542 2.96875 284.438 2.09375C285.354 1.21875 286.594 0.78125 288.156 0.78125C289.698 0.78125 290.927 1.21875 291.844 2.09375C292.76 2.96875 293.219 4.08333 293.219 5.4375C293.219 6.8125 292.75 7.9375 291.812 8.8125C290.896 9.6875 289.677 10.125 288.156 10.125C286.635 10.125 285.406 9.6875 284.469 8.8125C283.552 7.9375 283.094 6.8125 283.094 5.4375ZM315.719 48.625C310.76 48.625 306.719 47.1042 303.594 44.0625C300.49 41.0208 298.938 36.9688 298.938 31.9062V31.0312C298.938 27.6354 299.594 24.6042 300.906 21.9375C302.219 19.25 304.073 17.1875 306.469 15.75C308.885 14.2917 311.635 13.5625 314.719 13.5625C319.344 13.5625 322.979 15.0208 325.625 17.9375C328.292 20.8542 329.625 24.9896 329.625 30.3438V34.0312H308.094C308.385 36.2396 309.26 38.0104 310.719 39.3438C312.198 40.6771 314.062 41.3438 316.312 41.3438C319.792 41.3438 322.51 40.0833 324.469 37.5625L328.906 42.5312C327.552 44.4479 325.719 45.9479 323.406 47.0312C321.094 48.0938 318.531 48.625 315.719 48.625ZM314.688 20.875C312.896 20.875 311.438 21.4792 310.312 22.6875C309.208 23.8958 308.5 25.625 308.188 27.875H320.75V27.1562C320.708 25.1562 320.167 23.6146 319.125 22.5312C318.083 21.4271 316.604 20.875 314.688 20.875ZM353.094 38.6562C353.094 37.5521 352.542 36.6875 351.438 36.0625C350.354 35.4167 348.604 34.8438 346.188 34.3438C338.146 32.6562 334.125 29.2396 334.125 24.0938C334.125 21.0938 335.365 18.5938 337.844 16.5938C340.344 14.5729 343.604 13.5625 347.625 13.5625C351.917 13.5625 355.344 14.5729 357.906 16.5938C360.49 18.6146 361.781 21.2396 361.781 24.4688H352.75C352.75 23.1771 352.333 22.1146 351.5 21.2812C350.667 20.4271 349.365 20 347.594 20C346.073 20 344.896 20.3438 344.062 21.0312C343.229 21.7188 342.812 22.5938 342.812 23.6562C342.812 24.6562 343.281 25.4688 344.219 26.0938C345.177 26.6979 346.781 27.2292 349.031 27.6875C351.281 28.125 353.177 28.625 354.719 29.1875C359.49 30.9375 361.875 33.9688 361.875 38.2812C361.875 41.3646 360.552 43.8646 357.906 45.7812C355.26 47.6771 351.844 48.625 347.656 48.625C344.823 48.625 342.302 48.125 340.094 47.125C337.906 46.1042 336.188 44.7188 334.938 42.9688C333.688 41.1979 333.062 39.2917 333.062 37.25H341.625C341.708 38.8542 342.302 40.0833 343.406 40.9375C344.51 41.7917 345.99 42.2188 347.844 42.2188C349.573 42.2188 350.875 41.8958 351.75 41.25C352.646 40.5833 353.094 39.7188 353.094 38.6562Z" fill="white"/>
</svg>
