<svg width="181" height="31" viewBox="0 0 181 31" fill="none" xmlns="http://www.w3.org/2000/svg">
<path d="M6.15625 1.25L12 17.75L17.8125 1.25H23.9688V24H19.2656V17.7812L19.7344 7.04688L13.5938 24H10.375L4.25 7.0625L4.71875 17.7812V24H0.03125V1.25H6.15625ZM34.0781 17.6094L37.2031 7.09375H42.0469L35.25 26.625L34.875 27.5156C33.8646 29.724 32.1979 30.8281 29.875 30.8281C29.2188 30.8281 28.5521 30.7292 27.875 30.5312V27.1094L28.5625 27.125C29.4167 27.125 30.0521 26.9948 30.4688 26.7344C30.8958 26.474 31.2292 26.0417 31.4688 25.4375L32 24.0469L26.0781 7.09375H30.9375L34.0781 17.6094ZM60.5156 15.6719H56.7812V24H52.0938V1.25H60.5469C63.2344 1.25 65.3073 1.84896 66.7656 3.04688C68.224 4.24479 68.9531 5.9375 68.9531 8.125C68.9531 9.67708 68.6146 10.974 67.9375 12.0156C67.2708 13.0469 66.2552 13.8698 64.8906 14.4844L69.8125 23.7812V24H64.7812L60.5156 15.6719ZM56.7812 11.875H60.5625C61.7396 11.875 62.651 11.5781 63.2969 10.9844C63.9427 10.3802 64.2656 9.55208 64.2656 8.5C64.2656 7.42708 63.9583 6.58333 63.3438 5.96875C62.7396 5.35417 61.8073 5.04688 60.5469 5.04688H56.7812V11.875ZM80.0156 24.3125C77.5365 24.3125 75.5156 23.5521 73.9531 22.0312C72.401 20.5104 71.625 18.4844 71.625 15.9531V15.5156C71.625 13.8177 71.9531 12.3021 72.6094 10.9688C73.2656 9.625 74.1927 8.59375 75.3906 7.875C76.599 7.14583 77.974 6.78125 79.5156 6.78125C81.8281 6.78125 83.6458 7.51042 84.9688 8.96875C86.3021 10.4271 86.9688 12.4948 86.9688 15.1719V17.0156H76.2031C76.349 18.1198 76.7865 19.0052 77.5156 19.6719C78.2552 20.3385 79.1875 20.6719 80.3125 20.6719C82.0521 20.6719 83.4115 20.0417 84.3906 18.7812L86.6094 21.2656C85.9323 22.224 85.0156 22.974 83.8594 23.5156C82.7031 24.0469 81.4219 24.3125 80.0156 24.3125ZM79.5 10.4375C78.6042 10.4375 77.875 10.7396 77.3125 11.3438C76.7604 11.9479 76.4062 12.8125 76.25 13.9375H82.5312V13.5781C82.5104 12.5781 82.2396 11.8073 81.7188 11.2656C81.1979 10.7135 80.4583 10.4375 79.5 10.4375ZM96.5781 20.6719C97.4115 20.6719 98.0885 20.4427 98.6094 19.9844C99.1302 19.526 99.401 18.9167 99.4219 18.1562H103.656C103.646 19.3021 103.333 20.3542 102.719 21.3125C102.104 22.2604 101.26 23 100.188 23.5312C99.125 24.0521 97.9479 24.3125 96.6562 24.3125C94.2396 24.3125 92.3333 23.5469 90.9375 22.0156C89.5417 20.474 88.8438 18.349 88.8438 15.6406V15.3438C88.8438 12.7396 89.5365 10.6615 90.9219 9.10938C92.3073 7.55729 94.2083 6.78125 96.625 6.78125C98.7396 6.78125 100.432 7.38542 101.703 8.59375C102.984 9.79167 103.635 11.3906 103.656 13.3906H99.4219C99.401 12.5156 99.1302 11.8073 98.6094 11.2656C98.0885 10.7135 97.401 10.4375 96.5469 10.4375C95.4948 10.4375 94.6979 10.8229 94.1562 11.5938C93.625 12.3542 93.3594 13.5938 93.3594 15.3125V15.7812C93.3594 17.5208 93.625 18.7708 94.1562 19.5312C94.6875 20.2917 95.4948 20.6719 96.5781 20.6719ZM114.016 24.3125C111.536 24.3125 109.516 23.5521 107.953 22.0312C106.401 20.5104 105.625 18.4844 105.625 15.9531V15.5156C105.625 13.8177 105.953 12.3021 106.609 10.9688C107.266 9.625 108.193 8.59375 109.391 7.875C110.599 7.14583 111.974 6.78125 113.516 6.78125C115.828 6.78125 117.646 7.51042 118.969 8.96875C120.302 10.4271 120.969 12.4948 120.969 15.1719V17.0156H110.203C110.349 18.1198 110.786 19.0052 111.516 19.6719C112.255 20.3385 113.188 20.6719 114.312 20.6719C116.052 20.6719 117.411 20.0417 118.391 18.7812L120.609 21.2656C119.932 22.224 119.016 22.974 117.859 23.5156C116.703 24.0469 115.422 24.3125 114.016 24.3125ZM113.5 10.4375C112.604 10.4375 111.875 10.7396 111.312 11.3438C110.76 11.9479 110.406 12.8125 110.25 13.9375H116.531V13.5781C116.51 12.5781 116.24 11.8073 115.719 11.2656C115.198 10.7135 114.458 10.4375 113.5 10.4375ZM138.766 15.7031C138.766 18.3073 138.172 20.3958 136.984 21.9688C135.807 23.5312 134.214 24.3125 132.203 24.3125C130.495 24.3125 129.115 23.7188 128.062 22.5312V30.5H123.547V7.09375H127.734L127.891 8.75C128.984 7.4375 130.411 6.78125 132.172 6.78125C134.255 6.78125 135.875 7.55208 137.031 9.09375C138.188 10.6354 138.766 12.7604 138.766 15.4688V15.7031ZM134.25 15.375C134.25 13.8021 133.969 12.5885 133.406 11.7344C132.854 10.8802 132.047 10.4531 130.984 10.4531C129.568 10.4531 128.594 10.9948 128.062 12.0781V19C128.615 20.1146 129.599 20.6719 131.016 20.6719C133.172 20.6719 134.25 18.9062 134.25 15.375ZM146.344 24H141.812V7.09375H146.344V24ZM141.547 2.71875C141.547 2.04167 141.771 1.48438 142.219 1.04688C142.677 0.609375 143.297 0.390625 144.078 0.390625C144.849 0.390625 145.464 0.609375 145.922 1.04688C146.38 1.48438 146.609 2.04167 146.609 2.71875C146.609 3.40625 146.375 3.96875 145.906 4.40625C145.448 4.84375 144.839 5.0625 144.078 5.0625C143.318 5.0625 142.703 4.84375 142.234 4.40625C141.776 3.96875 141.547 3.40625 141.547 2.71875ZM157.859 24.3125C155.38 24.3125 153.359 23.5521 151.797 22.0312C150.245 20.5104 149.469 18.4844 149.469 15.9531V15.5156C149.469 13.8177 149.797 12.3021 150.453 10.9688C151.109 9.625 152.036 8.59375 153.234 7.875C154.443 7.14583 155.818 6.78125 157.359 6.78125C159.672 6.78125 161.49 7.51042 162.812 8.96875C164.146 10.4271 164.812 12.4948 164.812 15.1719V17.0156H154.047C154.193 18.1198 154.63 19.0052 155.359 19.6719C156.099 20.3385 157.031 20.6719 158.156 20.6719C159.896 20.6719 161.255 20.0417 162.234 18.7812L164.453 21.2656C163.776 22.224 162.859 22.974 161.703 23.5156C160.547 24.0469 159.266 24.3125 157.859 24.3125ZM157.344 10.4375C156.448 10.4375 155.719 10.7396 155.156 11.3438C154.604 11.9479 154.25 12.8125 154.094 13.9375H160.375V13.5781C160.354 12.5781 160.083 11.8073 159.562 11.2656C159.042 10.7135 158.302 10.4375 157.344 10.4375ZM176.547 19.3281C176.547 18.776 176.271 18.3438 175.719 18.0312C175.177 17.7083 174.302 17.4219 173.094 17.1719C169.073 16.3281 167.062 14.6198 167.062 12.0469C167.062 10.5469 167.682 9.29688 168.922 8.29688C170.172 7.28646 171.802 6.78125 173.812 6.78125C175.958 6.78125 177.672 7.28646 178.953 8.29688C180.245 9.30729 180.891 10.6198 180.891 12.2344H176.375C176.375 11.5885 176.167 11.0573 175.75 10.6406C175.333 10.2135 174.682 10 173.797 10C173.036 10 172.448 10.1719 172.031 10.5156C171.615 10.8594 171.406 11.2969 171.406 11.8281C171.406 12.3281 171.641 12.7344 172.109 13.0469C172.589 13.349 173.391 13.6146 174.516 13.8438C175.641 14.0625 176.589 14.3125 177.359 14.5938C179.745 15.4688 180.938 16.9844 180.938 19.1406C180.938 20.6823 180.276 21.9323 178.953 22.8906C177.63 23.8385 175.922 24.3125 173.828 24.3125C172.411 24.3125 171.151 24.0625 170.047 23.5625C168.953 23.0521 168.094 22.3594 167.469 21.4844C166.844 20.599 166.531 19.6458 166.531 18.625H170.812C170.854 19.4271 171.151 20.0417 171.703 20.4688C172.255 20.8958 172.995 21.1094 173.922 21.1094C174.786 21.1094 175.438 20.9479 175.875 20.625C176.323 20.2917 176.547 19.8594 176.547 19.3281Z" fill="#F9C365"/>
</svg>
